# xmcd
# 
# Track frame offsets:
#     150
#     19436
#     48394
#     68680
#     87490
#     108614
#     130851
#     152862
#     169236
#     189226
#     207639
#     227264
#     245312
#     263065
#     281193
#     300763
# 
# Disc length: 4188
# 
# Revision: 1
# Processed by: cddbd v1.5.2PL0 Copyright (c) Steve Scherf et al.
# Submitted via: fre:ac v1.0.31
# 
DISCID=db105a10
DTITLE=Various Artist - inakustik Great Women Of Song
DYEAR=2014
DGENRE=Blues
TTITLE0=Mary Black - Babes In The Wood
TTITLE1=Inga Rumpf and Friends - It's A Man's World
TTITLE2=Kara Grainger - Little Pack Of Lies
TTITLE3=Meg Hutchinson - I'd Like To Know
TTITLE4=Tracy Bonham - Big Red Heart
TTITLE5=Eliza Gilkyson - Rare Bird
TTITLE6=Emma-Lee - Backseat Heroine
TTITLE7=Tracy Nelson - Lead A Horse To Water
TTITLE8=Carrie Newcomer - Every Little Bit Of It
TTITLE9=Kasia Lins - Liar
TTITLE10=Lynn Miles - Love Is Red
TTITLE11=Colleen Rennison - See The Sky About To Rain
TTITLE12=Lucy Kaplansky - Manhattan Moon
TTITLE13=Lisa Doby - Glad
TTITLE14=Mindi Abair - I'll Be Your Home
TTITLE15=Christy Baron - Happy Together
EXTD=
EXTT0=
EXTT1=
EXTT2=
EXTT3=
EXTT4=
EXTT5=
EXTT6=
EXTT7=
EXTT8=
EXTT9=
EXTT10=
EXTT11=
EXTT12=
EXTT13=
EXTT14=
EXTT15=
PLAYORDER=
